<?xml version="1.0" encoding="utf-8"?>
<!-- Generator: Adobe Illustrator 18.1.0, SVG Export Plug-In . SVG Version: 6.00 Build 0)  -->
<svg version="1.0" id="Layer_1" xmlns="http://www.w3.org/2000/svg" xmlns:xlink="http://www.w3.org/1999/xlink" x="0px" y="0px"
	 viewBox="0 0 150 150" enable-background="new 0 0 150 150" xml:space="preserve">
<g>
	<path fill="none" d="M67.1,140.8c0,0-0.1,0-0.1,0C67.1,140.8,67.1,140.8,67.1,140.8C67.2,140.8,67.2,140.8,67.1,140.8z"/>
	<path fill="none" d="M67.3,140.8C67.3,140.8,67.2,140.8,67.3,140.8C67.2,140.8,67.2,140.8,67.3,140.8
		C67.2,140.8,67.3,140.8,67.3,140.8z"/>
	<path fill="#51C8E7" d="M99,96.4c-1.4,1.7-5.3,6.4-7.3,8.9C68.5,133.7,68.2,140,72,140.2c-0.2-0.6-0.1-1.3,0.3-2.4
		c17-0.3,30.8-14.3,30.8-31.4c0-1.2-0.1-2.5-0.3-3.7c0.6-0.8,1.2-1.6,1.8-2.4c0.1-0.2,0.3-0.5,0.4-0.7l1.6-5.3
		c0.9-4.1,1.8-9.5,2.3-13.7C108.4,84.4,105.9,87.9,99,96.4z"/>
	<path fill="#01667D" d="M63.1,76.3C49.9,80,40.3,92.1,40.3,106.5c0,8,3,15.3,7.9,20.8c0.7-12.4,7-30.6,14-48.5
		C62.5,77.9,62.8,77.1,63.1,76.3z"/>
	<path fill="#01667D" d="M76.3,71.9c7.4-15.4,15.8-32.8,13.2-43.7c-0.3-1.5-1.4-3.3-2.2-4.7c-2.6-3.3-6.3-7.5-9.2-10.7l-4.1-4
		C85,19.4,79.6,34,63.1,76.3c-0.3,0.8-0.6,1.6-1,2.5c-7,17.9-13.2,36.1-14,48.5c-0.5,9.3,2,15.4,9.8,15.6c1.7-0.5,3.3-1,4.9-1.5
		C40.9,145.3,63,99.4,76.3,71.9z"/>
	<path fill="#77BC1F" d="M67.3,140.8C67.3,140.8,67.2,140.8,67.3,140.8C67.2,140.8,67.3,140.8,67.3,140.8
		C67.3,140.8,67.2,140.8,67.3,140.8c-0.1,0-0.2,0-0.2,0c-3.8-0.6-6-6.9,16.8-40.4c0.4-0.6,1-1.5,1.5-2.2c13-19,20.2-29.5,20-36.1
		c0-0.2-0.1-0.5-0.1-0.8l0-0.3c-1.2-5.9-1.3-6-5.1-16.4L99,42c3.3,7.3-3.1,20.8-14.4,40.1c-11,18.7-17.1,30.5-21.1,40.5
		c-2.8,7.1-7.9,23,5.4,18.1c0.3-0.1,0.5-0.2,0.8-0.3c-0.3,0.1-0.6,0.2-0.9,0.3C68.2,140.8,67.7,140.8,67.3,140.8z"/>
	<path fill="#77BC1F" d="M67.2,140.8C67.2,140.8,67.2,140.8,67.2,140.8C67.2,140.8,67.2,140.8,67.2,140.8
		C67.2,140.8,67.2,140.8,67.2,140.8z"/>
	<path fill="#77BC1F" d="M67,140.8c0,0,0.1,0,0.1,0C67.1,140.8,67,140.8,67,140.8z"/>
</g>
</svg>
